<svg width="155" height="92" viewBox="0 0 155 92" fill="none" xmlns="http://www.w3.org/2000/svg">
<path d="M10 86.5C10 87.6935 9.52589 88.8381 8.68198 89.682C7.83807 90.5259 6.69347 91 5.5 91C4.30653 91 3.16193 90.5259 2.31802 89.682C1.47411 88.8381 1 87.6935 1 86.5C1 85.3065 1.47411 84.1619 2.31802 83.318C3.16193 82.4741 4.30653 82 5.5 82C6.69285 82.002 7.83627 82.4768 8.67975 83.3203C9.52322 84.1637 9.99798 85.3071 10 86.5Z" stroke="white" stroke-linecap="round" stroke-linejoin="round"/>
<path d="M39 86.5C39 87.3904 38.7359 88.2607 38.2411 89.0009C37.7463 89.7411 37.043 90.3178 36.2203 90.6582C35.3976 90.9986 34.4924 91.0872 33.6193 90.913C32.7462 90.7387 31.9443 90.3094 31.3153 89.6793C30.6863 89.0492 30.2583 88.2466 30.0855 87.3732C29.9128 86.4998 30.003 85.5948 30.3447 84.7726C30.6865 83.9505 31.2645 83.2482 32.0055 82.7547C32.7465 82.2611 33.6173 81.9985 34.5077 82C35.0982 82 35.683 82.1165 36.2286 82.3427C36.7741 82.5689 37.2697 82.9005 37.6869 83.3185C38.1042 83.7364 38.4349 84.2326 38.6602 84.7785C38.8855 85.3244 39.001 85.9094 39 86.5Z" stroke="white" stroke-linecap="round" stroke-linejoin="round"/>
<path d="M67 86.5C67 87.39 66.7361 88.26 66.2416 89.0001C65.7471 89.7401 65.0443 90.3169 64.2221 90.6574C63.3998 90.998 62.495 91.0872 61.6221 90.9135C60.7492 90.7399 59.9474 90.3113 59.318 89.682C58.6887 89.0526 58.2601 88.2508 58.0865 87.3779C57.9128 86.505 58.0019 85.6002 58.3425 84.7779C58.6831 83.9557 59.2599 83.2529 59.9999 82.7584C60.74 82.2639 61.61 82 62.5 82C63.6935 82 64.8381 82.4741 65.682 83.318C66.5259 84.1619 67 85.3065 67 86.5Z" stroke="white" stroke-linecap="round" stroke-linejoin="round"/>
<path d="M96 86.5C96 87.39 95.7361 88.26 95.2416 89.0001C94.7471 89.7401 94.0443 90.3169 93.2221 90.6574C92.3998 90.998 91.495 91.0872 90.6221 90.9135C89.7492 90.7399 88.9474 90.3113 88.318 89.682C87.6887 89.0526 87.2601 88.2508 87.0865 87.3779C86.9128 86.505 87.002 85.6002 87.3425 84.7779C87.6831 83.9557 88.2599 83.2529 88.9999 82.7584C89.74 82.2639 90.61 82 91.5 82C92.6935 82 93.8381 82.4741 94.682 83.318C95.5259 84.1619 96 85.3065 96 86.5Z" stroke="white" stroke-linecap="round" stroke-linejoin="round"/>
<path d="M125 86.5C125 87.39 124.736 88.26 124.242 89.0001C123.747 89.7401 123.044 90.3169 122.222 90.6574C121.4 90.998 120.495 91.0872 119.622 90.9135C118.749 90.7399 117.947 90.3113 117.318 89.682C116.689 89.0526 116.26 88.2508 116.086 87.3779C115.913 86.505 116.002 85.6002 116.343 84.7779C116.683 83.9557 117.26 83.2529 118 82.7584C118.74 82.2639 119.61 82 120.5 82C121.693 82 122.838 82.4741 123.682 83.318C124.526 84.1619 125 85.3065 125 86.5Z" stroke="white" stroke-linecap="round" stroke-linejoin="round"/>
<path d="M154 86.5C154 87.39 153.736 88.26 153.242 89.0001C152.747 89.7401 152.044 90.3169 151.222 90.6574C150.4 90.998 149.495 91.0872 148.622 90.9135C147.749 90.7399 146.947 90.3113 146.318 89.682C145.689 89.0526 145.26 88.2508 145.086 87.3779C144.913 86.505 145.002 85.6002 145.343 84.7779C145.683 83.9557 146.26 83.2529 147 82.7584C147.74 82.2639 148.61 82 149.5 82C150.693 82 151.838 82.4741 152.682 83.318C153.526 84.1619 154 85.3065 154 86.5Z" stroke="white" stroke-linecap="round" stroke-linejoin="round"/>
<path d="M10 59.5C10 60.6935 9.52589 61.8381 8.68198 62.682C7.83807 63.5259 6.69347 64 5.5 64C4.30653 64 3.16193 63.5259 2.31802 62.682C1.47411 61.8381 1 60.6935 1 59.5C1 58.3065 1.47411 57.1619 2.31802 56.318C3.16193 55.4741 4.30653 55 5.5 55C6.69347 55 7.83807 55.4741 8.68198 56.318C9.52589 57.1619 10 58.3065 10 59.5Z" stroke="white" stroke-linecap="round" stroke-linejoin="round"/>
<path d="M39 59.5C39 60.3903 38.7359 61.2607 38.2411 62.0009C37.7463 62.741 37.043 63.3178 36.2203 63.6582C35.3976 63.9986 34.4924 64.0872 33.6193 63.913C32.7462 63.7387 31.9443 63.3094 31.3153 62.6793C30.6863 62.0492 30.2583 61.2466 30.0855 60.3732C29.9128 59.4998 30.003 58.5948 30.3447 57.7726C30.6865 56.9505 31.2645 56.2482 32.0055 55.7547C32.7465 55.2611 33.6173 54.9985 34.5077 55C35.0982 55 35.683 55.1165 36.2286 55.3427C36.7741 55.5689 37.2697 55.9005 37.6869 56.3185C38.1042 56.7365 38.4349 57.2326 38.6602 57.7785C38.8855 58.3244 39.001 58.9094 39 59.5Z" stroke="white" stroke-linecap="round" stroke-linejoin="round"/>
<path d="M67 59.5C67 60.39 66.7361 61.26 66.2416 62.0001C65.7471 62.7401 65.0443 63.3169 64.2221 63.6575C63.3998 63.9981 62.495 64.0872 61.6221 63.9135C60.7492 63.7399 59.9474 63.3113 59.318 62.682C58.6887 62.0526 58.2601 61.2508 58.0865 60.3779C57.9128 59.505 58.0019 58.6002 58.3425 57.7779C58.6831 56.9557 59.2599 56.2529 59.9999 55.7584C60.74 55.2639 61.61 55 62.5 55C63.6935 55 64.8381 55.4741 65.682 56.318C66.5259 57.1619 67 58.3065 67 59.5Z" stroke="white" stroke-linecap="round" stroke-linejoin="round"/>
<path d="M96 59.5C96 60.39 95.7361 61.26 95.2416 62.0001C94.7471 62.7401 94.0443 63.3169 93.2221 63.6575C92.3998 63.9981 91.495 64.0872 90.6221 63.9135C89.7492 63.7399 88.9474 63.3113 88.318 62.682C87.6887 62.0526 87.2601 61.2508 87.0865 60.3779C86.9128 59.505 87.002 58.6002 87.3425 57.7779C87.6831 56.9557 88.2599 56.2529 88.9999 55.7584C89.74 55.2639 90.61 55 91.5 55C92.6935 55 93.8381 55.4741 94.682 56.318C95.5259 57.1619 96 58.3065 96 59.5Z" stroke="white" stroke-linecap="round" stroke-linejoin="round"/>
<path d="M125 59.5C125 60.39 124.736 61.26 124.242 62.0001C123.747 62.7401 123.044 63.3169 122.222 63.6575C121.4 63.9981 120.495 64.0872 119.622 63.9135C118.749 63.7399 117.947 63.3113 117.318 62.682C116.689 62.0526 116.26 61.2508 116.086 60.3779C115.913 59.505 116.002 58.6002 116.343 57.7779C116.683 56.9557 117.26 56.2529 118 55.7584C118.74 55.2639 119.61 55 120.5 55C121.693 55 122.838 55.4741 123.682 56.318C124.526 57.1619 125 58.3065 125 59.5Z" stroke="white" stroke-linecap="round" stroke-linejoin="round"/>
<path d="M154 59.5C154 60.39 153.736 61.26 153.242 62.0001C152.747 62.7401 152.044 63.3169 151.222 63.6575C150.4 63.9981 149.495 64.0872 148.622 63.9135C147.749 63.7399 146.947 63.3113 146.318 62.682C145.689 62.0526 145.26 61.2508 145.086 60.3779C144.913 59.505 145.002 58.6002 145.343 57.7779C145.683 56.9557 146.26 56.2529 147 55.7584C147.74 55.2639 148.61 55 149.5 55C150.693 55 151.838 55.4741 152.682 56.318C153.526 57.1619 154 58.3065 154 59.5Z" stroke="white" stroke-linecap="round" stroke-linejoin="round"/>
<path d="M10 32.5C9.99798 33.6928 9.52322 34.8363 8.67975 35.6797C7.83627 36.5232 6.69285 36.998 5.5 37C4.30653 37 3.16193 36.5259 2.31802 35.682C1.47411 34.8381 1 33.6935 1 32.5C1 31.3065 1.47411 30.1619 2.31802 29.318C3.16193 28.4741 4.30653 28 5.5 28C6.69347 28 7.83807 28.4741 8.68198 29.318C9.52589 30.1619 10 31.3065 10 32.5Z" stroke="white" stroke-linecap="round" stroke-linejoin="round"/>
<path d="M39 32.5C39 33.3903 38.7359 34.2607 38.2411 35.0009C37.7463 35.741 37.043 36.3178 36.2203 36.6582C35.3976 36.9986 34.4924 37.0872 33.6193 36.913C32.7462 36.7387 31.9443 36.3094 31.3153 35.6793C30.6863 35.0492 30.2583 34.2466 30.0855 33.3732C29.9128 32.4998 30.003 31.5948 30.3447 30.7726C30.6865 29.9505 31.2645 29.2482 32.0055 28.7547C32.7465 28.2611 33.6173 27.9985 34.5077 28C35.6998 28.002 36.8424 28.477 37.6847 29.3207C38.5269 30.1644 39 31.3078 39 32.5Z" stroke="white" stroke-linecap="round" stroke-linejoin="round"/>
<path d="M67 32.5C67 33.39 66.7361 34.26 66.2416 35.0001C65.7471 35.7401 65.0443 36.3169 64.2221 36.6575C63.3998 36.998 62.495 37.0872 61.6221 36.9135C60.7492 36.7399 59.9474 36.3113 59.318 35.682C58.6887 35.0526 58.2601 34.2508 58.0865 33.3779C57.9128 32.505 58.0019 31.6002 58.3425 30.7779C58.6831 29.9557 59.2599 29.2528 59.9999 28.7584C60.74 28.2639 61.61 28 62.5 28C63.6935 28 64.8381 28.4741 65.682 29.318C66.5259 30.1619 67 31.3065 67 32.5Z" stroke="white" stroke-linecap="round" stroke-linejoin="round"/>
<path d="M96 32.5C96 33.39 95.7361 34.26 95.2416 35.0001C94.7471 35.7401 94.0443 36.3169 93.2221 36.6575C92.3998 36.998 91.495 37.0872 90.6221 36.9135C89.7492 36.7399 88.9474 36.3113 88.318 35.682C87.6887 35.0526 87.2601 34.2508 87.0865 33.3779C86.9128 32.505 87.002 31.6002 87.3425 30.7779C87.6831 29.9557 88.2599 29.2528 88.9999 28.7584C89.74 28.2639 90.61 28 91.5 28C92.6935 28 93.8381 28.4741 94.682 29.318C95.5259 30.1619 96 31.3065 96 32.5Z" stroke="white" stroke-linecap="round" stroke-linejoin="round"/>
<path d="M125 32.5C125 33.39 124.736 34.26 124.242 35.0001C123.747 35.7401 123.044 36.3169 122.222 36.6575C121.4 36.998 120.495 37.0872 119.622 36.9135C118.749 36.7399 117.947 36.3113 117.318 35.682C116.689 35.0526 116.26 34.2508 116.086 33.3779C115.913 32.505 116.002 31.6002 116.343 30.7779C116.683 29.9557 117.26 29.2528 118 28.7584C118.74 28.2639 119.61 28 120.5 28C121.693 28.002 122.836 28.4768 123.68 29.3203C124.523 30.1637 124.998 31.3071 125 32.5Z" stroke="white" stroke-linecap="round" stroke-linejoin="round"/>
<path d="M154 32.5C154 33.39 153.736 34.26 153.242 35.0001C152.747 35.7401 152.044 36.3169 151.222 36.6575C150.4 36.998 149.495 37.0872 148.622 36.9135C147.749 36.7399 146.947 36.3113 146.318 35.682C145.689 35.0526 145.26 34.2508 145.086 33.3779C144.913 32.505 145.002 31.6002 145.343 30.7779C145.683 29.9557 146.26 29.2528 147 28.7584C147.74 28.2639 148.61 28 149.5 28C150.693 28 151.838 28.4741 152.682 29.318C153.526 30.1619 154 31.3065 154 32.5Z" stroke="white" stroke-linecap="round" stroke-linejoin="round"/>
<path d="M10 5.50001C10 6.69348 9.52589 7.83806 8.68198 8.68198C7.83807 9.52589 6.69347 10 5.5 10C4.30653 10 3.16193 9.52589 2.31802 8.68198C1.47411 7.83806 1 6.69348 1 5.50001C1 4.30653 1.47411 3.16194 2.31802 2.31802C3.16193 1.47411 4.30653 1 5.5 1C6.69285 1.00202 7.83627 1.47678 8.67975 2.32025C9.52322 3.16373 9.99798 4.30715 10 5.50001Z" stroke="white" stroke-linecap="round" stroke-linejoin="round"/>
<path d="M39 5.50001C39 6.39035 38.7359 7.26067 38.2411 8.00086C37.7463 8.74105 37.043 9.31782 36.2203 9.65819C35.3976 9.99856 34.4924 10.0872 33.6193 9.91297C32.7462 9.73872 31.9443 9.30938 31.3153 8.67927C30.6863 8.04917 30.2583 7.24663 30.0855 6.37321C29.9128 5.49979 30.003 4.59475 30.3447 3.77262C30.6865 2.95049 31.2645 2.24822 32.0055 1.75467C32.7465 1.26113 33.6173 0.998492 34.5077 1.00001C35.0982 1.00001 35.683 1.11646 36.2286 1.3427C36.7741 1.56894 37.2697 1.90052 37.6869 2.31848C38.1042 2.73645 38.4349 3.23258 38.6602 3.7785C38.8855 4.32442 39.001 4.90942 39 5.50001Z" stroke="white" stroke-linecap="round" stroke-linejoin="round"/>
<path d="M67 5.5C67 6.39002 66.7361 7.26004 66.2416 8.00006C65.7471 8.74008 65.0443 9.31686 64.2221 9.65745C63.3998 9.99805 62.495 10.0872 61.6221 9.91353C60.7492 9.7399 59.9474 9.31131 59.318 8.68197C58.6887 8.05264 58.2601 7.25082 58.0865 6.3779C57.9128 5.50499 58.0019 4.60019 58.3425 3.77792C58.6831 2.95566 59.2599 2.25285 59.9999 1.75838C60.74 1.26391 61.61 1 62.5 1C63.6935 1 64.8381 1.47411 65.682 2.31802C66.5259 3.16193 67 4.30653 67 5.5Z" stroke="white" stroke-linecap="round" stroke-linejoin="round"/>
<path d="M96 5.5C96 6.39002 95.7361 7.26004 95.2416 8.00006C94.7471 8.74008 94.0443 9.31686 93.2221 9.65745C92.3998 9.99805 91.495 10.0872 90.6221 9.91353C89.7492 9.7399 88.9474 9.31131 88.318 8.68197C87.6887 8.05264 87.2601 7.25082 87.0865 6.3779C86.9128 5.50499 87.002 4.60019 87.3425 3.77792C87.6831 2.95566 88.2599 2.25285 88.9999 1.75838C89.74 1.26391 90.61 1 91.5 1C92.6935 1 93.8381 1.47411 94.682 2.31802C95.5259 3.16193 96 4.30653 96 5.5Z" stroke="white" stroke-linecap="round" stroke-linejoin="round"/>
<path d="M125 5.5C125 6.39002 124.736 7.26004 124.242 8.00006C123.747 8.74008 123.044 9.31686 122.222 9.65745C121.4 9.99805 120.495 10.0872 119.622 9.91353C118.749 9.7399 117.947 9.31131 117.318 8.68197C116.689 8.05264 116.26 7.25082 116.086 6.3779C115.913 5.50499 116.002 4.60019 116.343 3.77792C116.683 2.95566 117.26 2.25285 118 1.75838C118.74 1.26391 119.61 1 120.5 1C121.693 1 122.838 1.47411 123.682 2.31802C124.526 3.16193 125 4.30653 125 5.5Z" stroke="white" stroke-linecap="round" stroke-linejoin="round"/>
<path d="M154 5.5C154 6.39002 153.736 7.26004 153.242 8.00006C152.747 8.74008 152.044 9.31686 151.222 9.65745C150.4 9.99805 149.495 10.0872 148.622 9.91353C147.749 9.7399 146.947 9.31131 146.318 8.68197C145.689 8.05264 145.26 7.25082 145.086 6.3779C144.913 5.50499 145.002 4.60019 145.343 3.77792C145.683 2.95566 146.26 2.25285 147 1.75838C147.74 1.26391 148.61 1 149.5 1C150.693 1 151.838 1.47411 152.682 2.31802C153.526 3.16193 154 4.30653 154 5.5Z" stroke="white" stroke-linecap="round" stroke-linejoin="round"/>
</svg>
