<svg width="199" height="189" viewBox="0 0 199 189" fill="none" xmlns="http://www.w3.org/2000/svg">
<g opacity="0.8">
<path d="M9.42641 183.319C9.42793 184.153 9.18212 184.968 8.72009 185.662C8.25806 186.356 7.60058 186.897 6.83085 187.217C6.06113 187.537 5.21375 187.622 4.39596 187.46C3.57817 187.298 2.82673 186.898 2.23674 186.309C1.64674 185.72 1.24471 184.969 1.08152 184.152C0.91833 183.334 1.00132 182.487 1.31998 181.716C1.63864 180.946 2.17865 180.287 2.87167 179.824C3.5647 179.361 4.37958 179.114 5.2132 179.114C6.32929 179.114 7.39977 179.556 8.18968 180.345C8.97959 181.133 9.42438 182.203 9.42641 183.319Z" stroke="white" stroke-linecap="round" stroke-linejoin="round"/>
<path d="M36.3788 183.319C36.3788 184.152 36.1317 184.967 35.6687 185.66C35.2057 186.353 34.5477 186.893 33.7779 187.212C33.008 187.531 32.1609 187.614 31.3436 187.451C30.5263 187.289 29.7756 186.888 29.1864 186.298C28.5971 185.709 28.1959 184.958 28.0333 184.141C27.8707 183.324 27.9542 182.477 28.273 181.707C28.5919 180.937 29.1319 180.279 29.8248 179.816C30.5177 179.353 31.3322 179.106 32.1655 179.106C33.283 179.106 34.3546 179.55 35.1447 180.34C35.9349 181.13 36.3788 182.202 36.3788 183.319Z" stroke="white" stroke-linecap="round" stroke-linejoin="round"/>
<path d="M63.3079 183.319C63.3079 184.152 63.0608 184.967 62.5978 185.66C62.1349 186.353 61.4769 186.893 60.707 187.212C59.9371 187.531 59.09 187.614 58.2727 187.451C57.4554 187.289 56.7047 186.888 56.1155 186.298C55.5263 185.709 55.125 184.958 54.9624 184.141C54.7999 183.324 54.8833 182.477 55.2022 181.707C55.5211 180.937 56.0611 180.279 56.7539 179.816C57.4468 179.353 58.2614 179.106 59.0947 179.106C60.2121 179.106 61.2837 179.55 62.0739 180.34C62.864 181.13 63.3079 182.202 63.3079 183.319Z" fill="white"/>
<path d="M90.2984 183.319C90.2984 184.152 90.0513 184.967 89.5884 185.66C89.1254 186.353 88.4674 186.893 87.6975 187.212C86.9277 187.531 86.0805 187.614 85.2633 187.451C84.446 187.289 83.6953 186.888 83.106 186.298C82.5168 185.709 82.1155 184.958 81.953 184.141C81.7904 183.324 81.8738 182.477 82.1927 181.707C82.5116 180.937 83.0516 180.279 83.7445 179.816C84.4373 179.353 85.2519 179.106 86.0852 179.106C87.2026 179.106 88.2743 179.55 89.0644 180.34C89.8545 181.13 90.2984 182.202 90.2984 183.319Z" stroke="white" stroke-linecap="round" stroke-linejoin="round"/>
<path d="M117.258 183.319C117.258 184.152 117.011 184.967 116.548 185.66C116.085 186.353 115.427 186.893 114.657 187.212C113.888 187.531 113.04 187.614 112.223 187.451C111.406 187.289 110.655 186.888 110.066 186.298C109.477 185.709 109.075 184.958 108.913 184.141C108.75 183.324 108.834 182.477 109.153 181.707C109.472 180.937 110.012 180.279 110.704 179.816C111.397 179.353 112.212 179.106 113.045 179.106C113.598 179.106 114.146 179.215 114.657 179.427C115.169 179.638 115.633 179.949 116.024 180.34C116.416 180.731 116.726 181.196 116.938 181.707C117.149 182.218 117.258 182.766 117.258 183.319Z" stroke="white" stroke-linecap="round" stroke-linejoin="round"/>
<path d="M144.211 183.319C144.211 184.152 143.964 184.967 143.501 185.66C143.038 186.353 142.38 186.893 141.61 187.212C140.84 187.531 139.993 187.614 139.175 187.451C138.358 187.289 137.607 186.888 137.018 186.298C136.429 185.709 136.028 184.958 135.865 184.141C135.703 183.324 135.786 182.477 136.105 181.707C136.424 180.937 136.964 180.279 137.657 179.816C138.35 179.353 139.164 179.106 139.997 179.106C141.115 179.106 142.187 179.55 142.977 180.34C143.767 181.13 144.211 182.202 144.211 183.319Z" stroke="white" stroke-linecap="round" stroke-linejoin="round"/>
<path d="M171.17 183.319C171.17 184.152 170.923 184.967 170.46 185.66C169.997 186.353 169.339 186.893 168.57 187.212C167.8 187.531 166.953 187.614 166.135 187.451C165.318 187.289 164.567 186.888 163.978 186.298C163.389 185.709 162.988 184.958 162.825 184.141C162.662 183.324 162.746 182.477 163.065 181.707C163.384 180.937 163.924 180.279 164.617 179.816C165.309 179.353 166.124 179.106 166.957 179.106C168.075 179.106 169.146 179.55 169.936 180.34C170.727 181.13 171.17 182.202 171.17 183.319Z" stroke="white" stroke-linecap="round" stroke-linejoin="round"/>
<path d="M198.13 183.319C198.13 184.152 197.883 184.967 197.42 185.66C196.957 186.353 196.299 186.893 195.529 187.212C194.76 187.531 193.912 187.614 193.095 187.451C192.278 187.289 191.527 186.888 190.938 186.298C190.349 185.709 189.947 184.958 189.785 184.141C189.622 183.324 189.706 182.477 190.025 181.707C190.344 180.937 190.884 180.279 191.576 179.816C192.269 179.353 193.084 179.106 193.917 179.106C195.035 179.106 196.106 179.55 196.896 180.34C197.686 181.13 198.13 182.202 198.13 183.319Z" stroke="white" stroke-linecap="round" stroke-linejoin="round"/>
<path d="M9.42641 157.871C9.42793 158.705 9.18212 159.52 8.72009 160.214C8.25806 160.908 7.60058 161.449 6.83085 161.769C6.06113 162.089 5.21375 162.174 4.39596 162.012C3.57817 161.85 2.82673 161.45 2.23674 160.861C1.64674 160.272 1.24471 159.521 1.08152 158.703C0.91833 157.886 1.00132 157.038 1.31998 156.268C1.63864 155.498 2.17865 154.839 2.87167 154.376C3.5647 153.913 4.37958 153.666 5.2132 153.666C6.32929 153.666 7.39977 154.108 8.18968 154.897C8.97959 155.685 9.42438 156.755 9.42641 157.871Z" stroke="white" stroke-linecap="round" stroke-linejoin="round"/>
<path d="M36.3787 157.871C36.3803 158.705 36.1345 159.52 35.6724 160.214C35.2104 160.908 34.5529 161.449 33.7832 161.769C33.0135 162.089 32.1661 162.174 31.3483 162.012C30.5305 161.85 29.7791 161.45 29.1891 160.861C28.5991 160.272 28.197 159.521 28.0339 158.704C27.8707 157.886 27.9536 157.038 28.2723 156.268C28.591 155.498 29.131 154.839 29.824 154.376C30.517 153.913 31.3319 153.666 32.1655 153.666C32.7185 153.665 33.2662 153.773 33.7773 153.983C34.2884 154.194 34.7529 154.504 35.1443 154.895C35.5356 155.285 35.8461 155.749 36.0579 156.26C36.2697 156.771 36.3787 157.318 36.3787 157.871Z" stroke="white" stroke-linecap="round" stroke-linejoin="round"/>
<path d="M63.3079 157.871C63.3094 158.705 63.0636 159.52 62.6016 160.214C62.1395 160.908 61.4821 161.449 60.7123 161.769C59.9426 162.089 59.0952 162.174 58.2774 162.012C57.4596 161.85 56.7082 161.45 56.1182 160.861C55.5282 160.272 55.1262 159.521 54.963 158.703C54.7998 157.886 54.8828 157.038 55.2014 156.268C55.5201 155.498 56.0601 154.839 56.7531 154.376C57.4462 153.913 58.2611 153.666 59.0947 153.666C60.2108 153.666 61.2812 154.108 62.0712 154.897C62.8611 155.685 63.3059 156.755 63.3079 157.871Z" fill="white"/>
<path d="M90.2984 157.871C90.2999 158.705 90.0541 159.52 89.5921 160.214C89.1301 160.908 88.4726 161.449 87.7029 161.769C86.9331 162.089 86.0858 162.174 85.268 162.012C84.4502 161.85 83.6987 161.45 83.1087 160.861C82.5187 160.272 82.1167 159.521 81.9535 158.703C81.7903 157.886 81.8733 157.038 82.192 156.268C82.5106 155.498 83.0507 154.839 83.7437 154.376C84.4367 153.913 85.2516 153.666 86.0852 153.666C87.2013 153.666 88.2718 154.108 89.0617 154.897C89.8516 155.685 90.2964 156.755 90.2984 157.871Z" stroke="white" stroke-linecap="round" stroke-linejoin="round"/>
<path d="M117.258 157.871C117.26 158.705 117.014 159.52 116.552 160.214C116.09 160.908 115.432 161.449 114.663 161.769C113.893 162.089 113.046 162.174 112.228 162.012C111.41 161.85 110.659 161.45 110.069 160.861C109.479 160.272 109.077 159.521 108.913 158.703C108.75 157.886 108.833 157.038 109.152 156.268C109.471 155.498 110.011 154.839 110.704 154.376C111.397 153.913 112.211 153.666 113.045 153.666C114.161 153.666 115.232 154.108 116.022 154.897C116.812 155.685 117.256 156.755 117.258 157.871Z" stroke="white" stroke-linecap="round" stroke-linejoin="round"/>
<path d="M144.211 157.871C144.212 158.705 143.966 159.52 143.504 160.214C143.042 160.908 142.385 161.449 141.615 161.769C140.845 162.089 139.998 162.174 139.18 162.012C138.362 161.85 137.611 161.45 137.021 160.861C136.431 160.272 136.029 159.521 135.866 158.704C135.703 157.886 135.786 157.038 136.104 156.268C136.423 155.498 136.963 154.839 137.656 154.376C138.349 153.913 139.164 153.666 139.997 153.666C140.55 153.665 141.098 153.773 141.609 153.983C142.12 154.194 142.585 154.504 142.976 154.895C143.368 155.285 143.678 155.749 143.89 156.26C144.102 156.771 144.211 157.318 144.211 157.871Z" stroke="white" stroke-linecap="round" stroke-linejoin="round"/>
<path d="M171.17 157.871C171.172 158.705 170.926 159.52 170.464 160.214C170.002 160.908 169.345 161.449 168.575 161.769C167.805 162.089 166.958 162.174 166.14 162.012C165.322 161.85 164.571 161.45 163.981 160.861C163.391 160.272 162.989 159.521 162.826 158.703C162.662 157.886 162.745 157.038 163.064 156.268C163.383 155.498 163.923 154.839 164.616 154.376C165.309 153.913 166.124 153.666 166.957 153.666C168.073 153.666 169.144 154.108 169.934 154.897C170.724 155.685 171.168 156.755 171.17 157.871Z" stroke="white" stroke-linecap="round" stroke-linejoin="round"/>
<path d="M9.42642 132.431C9.42642 133.264 9.17932 134.079 8.71637 134.771C8.25341 135.464 7.5954 136.004 6.82554 136.323C6.05567 136.642 5.20854 136.725 4.39125 136.563C3.57397 136.4 2.82325 135.999 2.23402 135.41C1.64479 134.821 1.24353 134.07 1.08096 133.253C0.91839 132.435 1.00183 131.588 1.32071 130.818C1.6396 130.048 2.17962 129.39 2.87248 128.927C3.56534 128.465 4.37992 128.217 5.21321 128.217C5.7665 128.217 6.31437 128.326 6.82554 128.538C7.33671 128.75 7.80117 129.06 8.1924 129.451C8.58363 129.843 8.89397 130.307 9.10571 130.818C9.31744 131.329 9.42642 131.877 9.42642 132.431Z" fill="white"/>
<path d="M36.3788 132.431C36.3788 133.264 36.1317 134.079 35.6687 134.771C35.2057 135.464 34.5477 136.004 33.7779 136.323C33.008 136.642 32.1609 136.725 31.3436 136.563C30.5263 136.4 29.7756 135.999 29.1864 135.41C28.5971 134.821 28.1959 134.07 28.0333 133.253C27.8707 132.435 27.9542 131.588 28.273 130.818C28.5919 130.048 29.1319 129.39 29.8248 128.927C30.5177 128.465 31.3322 128.217 32.1655 128.217C32.7188 128.217 33.2667 128.326 33.7779 128.538C34.289 128.75 34.7535 129.06 35.1447 129.451C35.536 129.843 35.8463 130.307 36.058 130.818C36.2698 131.329 36.3788 131.877 36.3788 132.431Z" fill="white"/>
<path d="M63.3079 132.431C63.3079 133.264 63.0608 134.079 62.5978 134.771C62.1349 135.464 61.4769 136.004 60.707 136.323C59.9371 136.642 59.09 136.725 58.2727 136.563C57.4554 136.4 56.7047 135.999 56.1155 135.41C55.5263 134.821 55.125 134.07 54.9624 133.253C54.7999 132.435 54.8833 131.588 55.2022 130.818C55.5211 130.048 56.0611 129.39 56.7539 128.927C57.4468 128.465 58.2614 128.217 59.0947 128.217C59.648 128.217 60.1958 128.326 60.707 128.538C61.2182 128.75 61.6826 129.06 62.0739 129.451C62.4651 129.843 62.7754 130.307 62.9872 130.818C63.1989 131.329 63.3079 131.877 63.3079 132.431Z" fill="white"/>
<path d="M90.2984 132.431C90.2984 133.264 90.0513 134.079 89.5884 134.771C89.1254 135.464 88.4674 136.004 87.6975 136.323C86.9277 136.642 86.0805 136.725 85.2633 136.563C84.446 136.4 83.6953 135.999 83.106 135.41C82.5168 134.821 82.1155 134.07 81.953 133.253C81.7904 132.435 81.8738 131.588 82.1927 130.818C82.5116 130.048 83.0516 129.39 83.7445 128.927C84.4373 128.465 85.2519 128.217 86.0852 128.217C86.6385 128.217 87.1864 128.326 87.6975 128.538C88.2087 128.75 88.6732 129.06 89.0644 129.451C89.4556 129.843 89.766 130.307 89.9777 130.818C90.1895 131.329 90.2984 131.877 90.2984 132.431Z" fill="white"/>
<path d="M117.258 132.431C117.258 133.264 117.011 134.079 116.548 134.771C116.085 135.464 115.427 136.004 114.657 136.323C113.888 136.642 113.04 136.725 112.223 136.563C111.406 136.4 110.655 135.999 110.066 135.41C109.477 134.821 109.075 134.07 108.913 133.253C108.75 132.435 108.834 131.588 109.153 130.818C109.472 130.048 110.012 129.39 110.704 128.927C111.397 128.465 112.212 128.217 113.045 128.217C113.598 128.217 114.146 128.326 114.657 128.538C115.169 128.75 115.633 129.06 116.024 129.451C116.416 129.843 116.726 130.307 116.938 130.818C117.149 131.329 117.258 131.877 117.258 132.431Z" fill="white"/>
<path d="M144.211 132.431C144.211 133.264 143.964 134.079 143.501 134.771C143.038 135.464 142.38 136.004 141.61 136.323C140.84 136.642 139.993 136.725 139.175 136.563C138.358 136.4 137.607 135.999 137.018 135.41C136.429 134.821 136.028 134.07 135.865 133.253C135.703 132.435 135.786 131.588 136.105 130.818C136.424 130.048 136.964 129.39 137.657 128.927C138.35 128.465 139.164 128.217 139.997 128.217C140.551 128.217 141.099 128.326 141.61 128.538C142.121 128.75 142.585 129.06 142.977 129.451C143.368 129.843 143.678 130.307 143.89 130.818C144.102 131.329 144.211 131.877 144.211 132.431Z" fill="white"/>
<path d="M9.42642 106.975C9.42642 107.808 9.17932 108.623 8.71637 109.316C8.25341 110.008 7.5954 110.548 6.82554 110.867C6.05567 111.186 5.20854 111.27 4.39125 111.107C3.57397 110.944 2.82325 110.543 2.23402 109.954C1.64479 109.365 1.24353 108.614 1.08096 107.797C0.91839 106.979 1.00183 106.132 1.32071 105.362C1.6396 104.593 2.17962 103.935 2.87248 103.472C3.56534 103.009 4.37992 102.762 5.21321 102.762C6.33062 102.762 7.40227 103.205 8.1924 103.996C8.98253 104.786 9.42642 105.857 9.42642 106.975Z" stroke="white" stroke-linecap="round" stroke-linejoin="round"/>
<path d="M36.3788 106.975C36.3788 107.808 36.1317 108.623 35.6687 109.316C35.2057 110.008 34.5477 110.548 33.7779 110.867C33.008 111.186 32.1609 111.27 31.3436 111.107C30.5263 110.944 29.7756 110.543 29.1864 109.954C28.5971 109.365 28.1959 108.614 28.0333 107.797C27.8707 106.979 27.9542 106.132 28.273 105.362C28.5919 104.593 29.1319 103.935 29.8248 103.472C30.5177 103.009 31.3322 102.762 32.1655 102.762C33.283 102.762 34.3546 103.205 35.1447 103.996C35.9349 104.786 36.3788 105.857 36.3788 106.975Z" stroke="white" stroke-linecap="round" stroke-linejoin="round"/>
<path d="M63.3079 106.975C63.3079 107.808 63.0608 108.623 62.5978 109.316C62.1349 110.008 61.4769 110.548 60.707 110.867C59.9371 111.186 59.09 111.27 58.2727 111.107C57.4554 110.944 56.7047 110.543 56.1155 109.954C55.5263 109.365 55.125 108.614 54.9624 107.797C54.7999 106.979 54.8833 106.132 55.2022 105.362C55.5211 104.593 56.0611 103.935 56.7539 103.472C57.4468 103.009 58.2614 102.762 59.0947 102.762C60.2121 102.762 61.2837 103.205 62.0739 103.996C62.864 104.786 63.3079 105.857 63.3079 106.975Z" fill="white"/>
<path d="M90.2984 106.975C90.2984 107.808 90.0513 108.623 89.5884 109.316C89.1254 110.008 88.4674 110.548 87.6975 110.867C86.9277 111.186 86.0805 111.27 85.2633 111.107C84.446 110.944 83.6953 110.543 83.106 109.954C82.5168 109.365 82.1155 108.614 81.953 107.797C81.7904 106.979 81.8738 106.132 82.1927 105.362C82.5116 104.593 83.0516 103.935 83.7445 103.472C84.4373 103.009 85.2519 102.762 86.0852 102.762C87.2026 102.762 88.2743 103.205 89.0644 103.996C89.8545 104.786 90.2984 105.857 90.2984 106.975Z" stroke="white" stroke-linecap="round" stroke-linejoin="round"/>
<path d="M117.258 106.975C117.258 107.808 117.011 108.623 116.548 109.316C116.085 110.008 115.427 110.548 114.657 110.867C113.888 111.186 113.04 111.27 112.223 111.107C111.406 110.944 110.655 110.543 110.066 109.954C109.477 109.365 109.075 108.614 108.913 107.797C108.75 106.979 108.834 106.132 109.153 105.362C109.472 104.593 110.012 103.935 110.704 103.472C111.397 103.009 112.212 102.762 113.045 102.762C113.598 102.762 114.146 102.871 114.657 103.082C115.169 103.294 115.633 103.604 116.024 103.996C116.416 104.387 116.726 104.851 116.938 105.362C117.149 105.874 117.258 106.422 117.258 106.975Z" stroke="white" stroke-linecap="round" stroke-linejoin="round"/>
<path d="M9.42641 81.5421C9.42793 82.3757 9.18212 83.191 8.72009 83.8849C8.25806 84.5788 7.60058 85.12 6.83085 85.44C6.06113 85.7601 5.21375 85.8446 4.39596 85.6829C3.57817 85.5212 2.82673 85.1206 2.23674 84.5317C1.64674 83.9427 1.24471 83.192 1.08152 82.3745C0.91833 81.557 1.00132 80.7095 1.31998 79.9392C1.63864 79.1689 2.17865 78.5104 2.87167 78.0471C3.5647 77.5838 4.37958 77.3365 5.2132 77.3365C6.32929 77.3365 7.39977 77.7794 8.18968 78.5678C8.97959 79.3563 9.42438 80.426 9.42641 81.5421Z" stroke="white" stroke-linecap="round" stroke-linejoin="round"/>
<path d="M36.3787 81.5421C36.3803 82.3757 36.1345 83.191 35.6724 83.8849C35.2104 84.5788 34.5529 85.12 33.7832 85.44C33.0135 85.7601 32.1661 85.8447 31.3483 85.683C30.5305 85.5213 29.7791 85.1206 29.1891 84.5317C28.5991 83.9427 28.197 83.192 28.0339 82.3745C27.8707 81.557 27.9536 80.7095 28.2723 79.9392C28.591 79.1689 29.131 78.5104 29.824 78.0471C30.517 77.5838 31.3319 77.3366 32.1655 77.3366C32.7185 77.3355 33.2662 77.4436 33.7773 77.6545C34.2884 77.8654 34.7529 78.175 35.1443 78.5656C35.5356 78.9562 35.8461 79.4202 36.0579 79.9309C36.2697 80.4416 36.3787 80.9891 36.3787 81.5421Z" stroke="white" stroke-linecap="round" stroke-linejoin="round"/>
<path d="M63.3079 81.5421C63.3094 82.3757 63.0636 83.191 62.6016 83.8849C62.1395 84.5788 61.4821 85.12 60.7123 85.44C59.9426 85.7601 59.0952 85.8446 58.2774 85.6829C57.4596 85.5212 56.7082 85.1206 56.1182 84.5317C55.5282 83.9427 55.1262 83.192 54.963 82.3745C54.7998 81.557 54.8828 80.7095 55.2014 79.9392C55.5201 79.1689 56.0601 78.5104 56.7531 78.0471C57.4462 77.5838 58.2611 77.3365 59.0947 77.3365C60.2108 77.3365 61.2812 77.7794 62.0712 78.5678C62.8611 79.3563 63.3059 80.426 63.3079 81.5421Z" fill="white"/>
<path d="M90.2984 81.5421C90.2999 82.3757 90.0541 83.191 89.5921 83.8849C89.1301 84.5788 88.4726 85.12 87.7029 85.44C86.9331 85.7601 86.0858 85.8446 85.268 85.6829C84.4502 85.5212 83.6987 85.1206 83.1087 84.5317C82.5187 83.9427 82.1167 83.192 81.9535 82.3745C81.7903 81.557 81.8733 80.7095 82.192 79.9392C82.5106 79.1689 83.0507 78.5104 83.7437 78.0471C84.4367 77.5838 85.2516 77.3365 86.0852 77.3365C87.2013 77.3365 88.2718 77.7794 89.0617 78.5678C89.8516 79.3563 90.2964 80.426 90.2984 81.5421Z" stroke="white" stroke-linecap="round" stroke-linejoin="round"/>
<path d="M9.42642 56.1017C9.42642 56.935 9.17932 57.7495 8.71637 58.4424C8.25341 59.1352 7.5954 59.6753 6.82554 59.9942C6.05567 60.313 5.20854 60.3965 4.39125 60.2339C3.57397 60.0713 2.82325 59.6701 2.23402 59.0809C1.64479 58.4916 1.24353 57.7409 1.08096 56.9236C0.91839 56.1063 1.00183 55.2592 1.32071 54.4893C1.6396 53.7195 2.17962 53.0614 2.87248 52.5985C3.56534 52.1355 4.37992 51.8884 5.21321 51.8884C6.33062 51.8884 7.40227 52.3324 8.1924 53.1225C8.98253 53.9126 9.42642 54.9843 9.42642 56.1017Z" stroke="white" stroke-linecap="round" stroke-linejoin="round"/>
<path d="M36.3788 56.1017C36.3788 56.935 36.1317 57.7495 35.6687 58.4424C35.2057 59.1352 34.5477 59.6753 33.7779 59.9942C33.008 60.313 32.1609 60.3965 31.3436 60.2339C30.5263 60.0713 29.7756 59.6701 29.1864 59.0809C28.5971 58.4916 28.1959 57.7409 28.0333 56.9236C27.8707 56.1063 27.9542 55.2592 28.273 54.4893C28.5919 53.7195 29.1319 53.0614 29.8248 52.5985C30.5177 52.1355 31.3322 51.8884 32.1655 51.8884C33.283 51.8884 34.3546 52.3324 35.1447 53.1225C35.9349 53.9126 36.3788 54.9843 36.3788 56.1017Z" stroke="white" stroke-linecap="round" stroke-linejoin="round"/>
<path d="M63.3079 56.1017C63.3079 56.935 63.0608 57.7495 62.5978 58.4424C62.1349 59.1352 61.4769 59.6753 60.707 59.9942C59.9371 60.313 59.09 60.3965 58.2727 60.2339C57.4554 60.0713 56.7047 59.6701 56.1155 59.0809C55.5263 58.4916 55.125 57.7409 54.9624 56.9236C54.7999 56.1063 54.8833 55.2592 55.2022 54.4893C55.5211 53.7195 56.0611 53.0614 56.7539 52.5985C57.4468 52.1355 58.2614 51.8884 59.0947 51.8884C60.2121 51.8884 61.2837 52.3324 62.0739 53.1225C62.864 53.9126 63.3079 54.9843 63.3079 56.1017Z" fill="white"/>
<path d="M9.42642 30.6612C9.42642 31.4945 9.17932 32.3091 8.71637 33.002C8.25341 33.6948 7.5954 34.2348 6.82554 34.5537C6.05567 34.8726 5.20854 34.956 4.39125 34.7935C3.57397 34.6309 2.82325 34.2296 2.23402 33.6404C1.64479 33.0512 1.24353 32.3004 1.08096 31.4832C0.91839 30.6659 1.00183 29.8187 1.32071 29.0489C1.6396 28.279 2.17962 27.621 2.87248 27.1581C3.56534 26.6951 4.37992 26.448 5.21321 26.448C6.33062 26.448 7.40227 26.8919 8.1924 27.682C8.98253 28.4721 9.42642 29.5438 9.42642 30.6612Z" stroke="white" stroke-linecap="round" stroke-linejoin="round"/>
<path d="M36.3788 30.6612C36.3788 31.4945 36.1317 32.3091 35.6687 33.002C35.2057 33.6948 34.5477 34.2348 33.7779 34.5537C33.008 34.8726 32.1609 34.956 31.3436 34.7935C30.5263 34.6309 29.7756 34.2296 29.1864 33.6404C28.5971 33.0512 28.1959 32.3004 28.0333 31.4832C27.8707 30.6659 27.9542 29.8187 28.273 29.0489C28.5919 28.279 29.1319 27.621 29.8248 27.1581C30.5177 26.6951 31.3322 26.448 32.1655 26.448C33.283 26.448 34.3546 26.8919 35.1447 27.682C35.9349 28.4721 36.3788 29.5438 36.3788 30.6612Z" stroke="white" stroke-linecap="round" stroke-linejoin="round"/>
<path d="M9.42642 5.21325C9.42642 6.04654 9.17932 6.8611 8.71637 7.55396C8.25341 8.24682 7.5954 8.78685 6.82554 9.10573C6.05567 9.42462 5.20854 9.50803 4.39125 9.34546C3.57397 9.18289 2.82325 8.78167 2.23402 8.19244C1.64479 7.60321 1.24353 6.85249 1.08096 6.0352C0.91839 5.21792 1.00183 4.37077 1.32071 3.60091C1.6396 2.83104 2.17962 2.17301 2.87248 1.71005C3.56534 1.2471 4.37992 1 5.21321 1C6.33062 1 7.40227 1.44393 8.1924 2.23406C8.98253 3.02419 9.42642 4.09584 9.42642 5.21325Z" stroke="white" stroke-linecap="round" stroke-linejoin="round"/>
</g>
</svg>
