<svg width="108" height="108" viewBox="0 0 108 108" fill="none" xmlns="http://www.w3.org/2000/svg">
<mask id="mask0_1_254" style="mask-type:luminance" maskUnits="userSpaceOnUse" x="0" y="0" width="108" height="108">
<path d="M107.866 53.9329L53.9329 0L-9.20188e-06 53.9329L53.9328 107.866L107.866 53.9329Z" fill="white"/>
</mask>
<g mask="url(#mask0_1_254)">
<path d="M53.9335 103.675C81.4051 103.675 103.675 81.4053 103.675 53.9336C103.675 26.4619 81.4051 4.19177 53.9335 4.19177C26.4618 4.19177 4.19165 26.4619 4.19165 53.9336C4.19165 81.4053 26.4618 103.675 53.9335 103.675Z" stroke="white" stroke-miterlimit="10"/>
<path d="M53.934 93.5494C75.8132 93.5494 93.5498 75.8128 93.5498 53.9336C93.5498 32.0544 75.8132 14.3177 53.934 14.3177C32.0547 14.3177 14.3181 32.0544 14.3181 53.9336C14.3181 75.8128 32.0547 93.5494 53.934 93.5494Z" stroke="white" stroke-miterlimit="10"/>
<path d="M53.933 83.4274C70.2219 83.4274 83.4267 70.2226 83.4267 53.9337C83.4267 37.6447 70.2219 24.4399 53.933 24.4399C37.644 24.4399 24.4392 37.6447 24.4392 53.9337C24.4392 70.2226 37.644 83.4274 53.933 83.4274Z" stroke="white" stroke-miterlimit="10"/>
<path d="M53.9326 73.3053C64.6313 73.3053 73.3042 64.6323 73.3042 53.9336C73.3042 43.235 64.6313 34.562 53.9326 34.562C43.234 34.562 34.561 43.235 34.561 53.9336C34.561 64.6323 43.234 73.3053 53.9326 73.3053Z" stroke="white" stroke-miterlimit="10"/>
<path d="M53.9335 63.1831C59.0419 63.1831 63.183 59.042 63.183 53.9336C63.183 48.8252 59.0419 44.6841 53.9335 44.6841C48.8252 44.6841 44.684 48.8252 44.684 53.9336C44.684 59.042 48.8252 63.1831 53.9335 63.1831Z" stroke="white" stroke-miterlimit="10"/>
</g>
</svg>
