<svg width="136" height="176" viewBox="0 0 136 176" fill="none" xmlns="http://www.w3.org/2000/svg">
<path d="M109.658 171.973C109.658 172.758 109.425 173.527 108.989 174.18C108.552 174.833 107.932 175.342 107.206 175.643C106.48 175.944 105.681 176.022 104.911 175.869C104.14 175.716 103.432 175.337 102.876 174.782C102.321 174.226 101.942 173.518 101.789 172.748C101.636 171.977 101.714 171.178 102.015 170.452C102.316 169.726 102.825 169.106 103.478 168.669C104.132 168.233 104.9 168 105.686 168C106.739 168 107.75 168.418 108.495 169.164C109.24 169.909 109.658 170.919 109.658 171.973Z" fill="#D3D3D3"/>
<path d="M135.083 171.973C135.083 172.758 134.85 173.527 134.414 174.18C133.977 174.833 133.357 175.342 132.631 175.643C131.905 175.944 131.106 176.022 130.335 175.869C129.565 175.716 128.857 175.337 128.301 174.782C127.746 174.226 127.367 173.518 127.214 172.748C127.061 171.977 127.139 171.178 127.44 170.452C127.741 169.726 128.25 169.106 128.903 168.669C129.557 168.233 130.325 168 131.111 168C132.164 168 133.175 168.418 133.92 169.164C134.665 169.909 135.083 170.919 135.083 171.973Z" fill="#D3D3D3"/>
<path d="M109.658 147.972C109.658 148.757 109.425 149.525 108.989 150.179C108.552 150.832 107.932 151.341 107.206 151.642C106.48 151.943 105.681 152.021 104.911 151.868C104.14 151.715 103.432 151.336 102.876 150.781C102.321 150.225 101.942 149.517 101.789 148.747C101.636 147.976 101.714 147.177 102.015 146.451C102.316 145.725 102.825 145.105 103.478 144.668C104.132 144.232 104.9 143.999 105.686 143.999C106.739 143.999 107.75 144.417 108.495 145.162C109.24 145.907 109.658 146.918 109.658 147.972Z" fill="#D3D3D3"/>
<path d="M135.083 147.972C135.083 148.757 134.85 149.525 134.414 150.179C133.977 150.832 133.357 151.341 132.631 151.642C131.905 151.943 131.106 152.021 130.335 151.868C129.565 151.715 128.857 151.336 128.301 150.781C127.746 150.225 127.367 149.517 127.214 148.747C127.061 147.976 127.139 147.177 127.44 146.451C127.741 145.725 128.25 145.105 128.903 144.668C129.557 144.232 130.325 143.999 131.111 143.999C132.164 143.999 133.175 144.417 133.92 145.162C134.665 145.907 135.083 146.918 135.083 147.972Z" fill="#D3D3D3"/>
<path d="M109.658 123.97C109.658 124.756 109.425 125.524 108.989 126.177C108.552 126.831 107.932 127.34 107.206 127.641C106.48 127.941 105.681 128.02 104.911 127.867C104.14 127.713 103.432 127.335 102.876 126.779C102.321 126.224 101.942 125.516 101.789 124.745C101.636 123.975 101.714 123.176 102.015 122.45C102.316 121.724 102.825 121.103 103.478 120.667C104.132 120.23 104.9 119.997 105.686 119.997C106.739 119.997 107.75 120.416 108.495 121.161C109.24 121.906 109.658 122.917 109.658 123.97Z" fill="#D3D3D3"/>
<path d="M135.083 123.97C135.083 124.756 134.85 125.524 134.414 126.177C133.977 126.831 133.357 127.34 132.631 127.641C131.905 127.941 131.106 128.02 130.335 127.867C129.565 127.713 128.857 127.335 128.301 126.779C127.746 126.224 127.367 125.516 127.214 124.745C127.061 123.975 127.139 123.176 127.44 122.45C127.741 121.724 128.25 121.103 128.903 120.667C129.557 120.23 130.325 119.997 131.111 119.997C132.164 119.997 133.175 120.416 133.92 121.161C134.665 121.906 135.083 122.917 135.083 123.97Z" fill="#D3D3D3"/>
<path d="M109.658 99.9691C109.658 100.755 109.425 101.523 108.989 102.176C108.552 102.83 107.932 103.339 107.206 103.639C106.48 103.94 105.681 104.019 104.911 103.866C104.14 103.712 103.432 103.334 102.876 102.778C102.321 102.223 101.942 101.515 101.789 100.744C101.636 99.9735 101.714 99.1747 102.015 98.4488C102.316 97.7229 102.825 97.1024 103.478 96.6659C104.132 96.2293 104.9 95.9963 105.686 95.9963C106.739 95.9963 107.75 96.4149 108.495 97.1599C109.24 97.905 109.658 98.9155 109.658 99.9691Z" fill="#D3D3D3"/>
<path d="M135.083 99.9691C135.083 100.755 134.85 101.523 134.414 102.176C133.977 102.83 133.357 103.339 132.631 103.639C131.905 103.94 131.106 104.019 130.335 103.866C129.565 103.712 128.857 103.334 128.301 102.778C127.746 102.223 127.367 101.515 127.214 100.744C127.061 99.9735 127.139 99.1747 127.44 98.4488C127.741 97.7229 128.25 97.1024 128.903 96.6659C129.557 96.2293 130.325 95.9963 131.111 95.9963C132.164 95.9963 133.175 96.4149 133.92 97.1599C134.665 97.905 135.083 98.9155 135.083 99.9691Z" fill="#D3D3D3"/>
<path d="M109.658 75.9762C109.657 76.7616 109.422 77.5289 108.985 78.1811C108.547 78.8334 107.926 79.3413 107.2 79.6407C106.474 79.9402 105.675 80.0176 104.905 79.8634C104.135 79.7092 103.428 79.3302 102.873 78.7743C102.319 78.2184 101.941 77.5104 101.789 76.74C101.636 75.9696 101.715 75.1712 102.016 74.4458C102.317 73.7203 102.826 73.1004 103.479 72.6642C104.132 72.228 104.9 71.9952 105.686 71.9952C106.208 71.9952 106.725 72.0982 107.208 72.2984C107.69 72.4986 108.129 72.7919 108.498 73.1617C108.867 73.5315 109.159 73.9704 109.358 74.4534C109.557 74.9363 109.659 75.4538 109.658 75.9762Z" fill="#D3D3D3"/>
<path d="M135.083 75.9762C135.082 76.7616 134.847 77.5289 134.41 78.1811C133.972 78.8334 133.351 79.3413 132.625 79.6407C131.899 79.9402 131.1 80.0176 130.33 79.8634C129.56 79.7092 128.853 79.3302 128.298 78.7743C127.744 78.2184 127.366 77.5104 127.213 76.74C127.061 75.9696 127.14 75.1712 127.441 74.4458C127.742 73.7203 128.251 73.1004 128.904 72.6642C129.557 72.228 130.325 71.9952 131.11 71.9952C131.633 71.9952 132.15 72.0982 132.633 72.2984C133.115 72.4986 133.554 72.7919 133.923 73.1617C134.292 73.5315 134.584 73.9704 134.783 74.4534C134.982 74.9363 135.084 75.4538 135.083 75.9762Z" fill="#D3D3D3"/>
<path d="M109.658 51.975C109.658 52.7607 109.425 53.5288 108.989 54.1821C108.552 54.8354 107.932 55.3446 107.206 55.6453C106.48 55.946 105.681 56.0247 104.911 55.8714C104.14 55.7181 103.432 55.3398 102.876 54.7842C102.321 54.2285 101.942 53.5207 101.789 52.75C101.636 51.9794 101.714 51.1806 102.015 50.4547C102.316 49.7287 102.825 49.1083 103.478 48.6717C104.132 48.2352 104.9 48.0022 105.686 48.0022C106.739 48.0022 107.75 48.4208 108.495 49.1658C109.24 49.9108 109.658 50.9213 109.658 51.975Z" fill="#D3D3D3"/>
<path d="M135.083 51.975C135.083 52.7607 134.85 53.5288 134.414 54.1821C133.977 54.8354 133.357 55.3446 132.631 55.6453C131.905 55.946 131.106 56.0247 130.335 55.8714C129.565 55.7181 128.857 55.3398 128.301 54.7842C127.746 54.2285 127.367 53.5207 127.214 52.75C127.061 51.9794 127.139 51.1806 127.44 50.4547C127.741 49.7287 128.25 49.1083 128.903 48.6717C129.557 48.2352 130.325 48.0022 131.111 48.0022C132.164 48.0022 133.175 48.4208 133.92 49.1658C134.665 49.9108 135.083 50.9213 135.083 51.975Z" fill="#D3D3D3"/>
<path d="M109.658 27.9739C109.658 28.7596 109.425 29.5277 108.989 30.181C108.552 30.8344 107.932 31.3436 107.206 31.6442C106.48 31.9449 105.681 32.0236 104.911 31.8703C104.14 31.717 103.432 31.3387 102.876 30.7831C102.321 30.2274 101.942 29.5196 101.789 28.7489C101.636 27.9783 101.714 27.1795 102.015 26.4536C102.316 25.7276 102.825 25.1072 103.478 24.6706C104.132 24.2341 104.9 24.0011 105.686 24.0011C106.739 24.0011 107.75 24.4197 108.495 25.1647C109.24 25.9097 109.658 26.9202 109.658 27.9739Z" fill="#D3D3D3"/>
<path d="M135.083 27.9739C135.083 28.7596 134.85 29.5277 134.414 30.181C133.977 30.8344 133.357 31.3436 132.631 31.6442C131.905 31.9449 131.106 32.0236 130.335 31.8703C129.565 31.717 128.857 31.3387 128.301 30.7831C127.746 30.2274 127.367 29.5196 127.214 28.7489C127.061 27.9783 127.139 27.1795 127.44 26.4536C127.741 25.7276 128.25 25.1072 128.903 24.6706C129.557 24.2341 130.325 24.0011 131.111 24.0011C132.164 24.0011 133.175 24.4197 133.92 25.1647C134.665 25.9097 135.083 26.9202 135.083 27.9739Z" fill="#D3D3D3"/>
<path d="M109.658 3.97278C109.658 4.75852 109.425 5.5266 108.989 6.17992C108.552 6.83324 107.932 7.34245 107.206 7.64314C106.48 7.94383 105.681 8.02251 104.911 7.86922C104.14 7.71593 103.432 7.33756 102.876 6.78195C102.321 6.22635 101.942 5.51847 101.789 4.74783C101.636 3.97719 101.714 3.17839 102.015 2.45246C102.316 1.72653 102.825 1.10606 103.478 0.669528C104.132 0.232994 104.9 0 105.686 0C106.739 0 107.75 0.418558 108.495 1.1636C109.24 1.90864 109.658 2.91913 109.658 3.97278Z" fill="#D3D3D3"/>
<path d="M135.083 3.97278C135.083 4.75852 134.85 5.5266 134.414 6.17992C133.977 6.83324 133.357 7.34245 132.631 7.64314C131.905 7.94383 131.106 8.02251 130.335 7.86922C129.565 7.71593 128.857 7.33756 128.301 6.78195C127.746 6.22635 127.367 5.51847 127.214 4.74783C127.061 3.97719 127.139 3.17839 127.44 2.45246C127.741 1.72653 128.25 1.10606 128.903 0.669528C129.557 0.232994 130.325 0 131.111 0C132.164 0 133.175 0.418558 133.92 1.1636C134.665 1.90864 135.083 2.91913 135.083 3.97278Z" fill="#D3D3D3"/>
<path d="M58.803 171.973C58.803 172.758 58.5699 173.527 58.1334 174.18C57.6969 174.833 57.0764 175.342 56.3505 175.643C55.6246 175.944 54.8258 176.022 54.0551 175.869C53.2845 175.716 52.5766 175.337 52.021 174.782C51.4654 174.226 51.087 173.518 50.9337 172.748C50.7805 171.977 50.8592 171.178 51.1599 170.452C51.4606 169.726 51.9697 169.106 52.6231 168.669C53.2764 168.233 54.0444 168 54.8302 168C55.8838 168 56.8944 168.418 57.6394 169.164C58.3845 169.909 58.803 170.919 58.803 171.973Z" fill="#D3D3D3"/>
<path d="M84.2354 171.973C84.237 172.761 84.0047 173.532 83.5679 174.187C83.1311 174.843 82.5094 175.355 81.7817 175.657C81.0539 175.96 80.2528 176.039 79.4798 175.886C78.7068 175.732 77.9967 175.353 77.4394 174.796C76.8822 174.239 76.5029 173.529 76.3495 172.756C76.1962 171.983 76.2757 171.181 76.5781 170.454C76.8804 169.726 77.3919 169.104 78.0478 168.667C78.7037 168.231 79.4746 167.998 80.2626 168C81.3156 168.002 82.3249 168.421 83.0695 169.166C83.814 169.91 84.2332 170.92 84.2354 171.973Z" fill="#D3D3D3"/>
<path d="M33.385 147.972C33.385 148.757 33.152 149.525 32.7155 150.179C32.2789 150.832 31.6584 151.341 30.9325 151.642C30.2065 151.943 29.4077 152.021 28.6371 151.868C27.8665 151.715 27.1586 151.336 26.603 150.781C26.0474 150.225 25.6691 149.517 25.5158 148.747C25.3625 147.976 25.4411 147.177 25.7418 146.451C26.0425 145.725 26.5517 145.105 27.205 144.668C27.8583 144.232 28.6265 143.999 29.4122 143.999C30.4659 143.999 31.4763 144.417 32.2214 145.162C32.9664 145.907 33.385 146.918 33.385 147.972Z" fill="#D3D3D3"/>
<path d="M58.803 147.972C58.803 148.757 58.5699 149.525 58.1334 150.179C57.6969 150.832 57.0764 151.341 56.3505 151.642C55.6246 151.943 54.8258 152.021 54.0551 151.868C53.2845 151.715 52.5766 151.336 52.021 150.781C51.4654 150.225 51.087 149.517 50.9337 148.747C50.7805 147.976 50.8592 147.177 51.1599 146.451C51.4606 145.725 51.9697 145.105 52.6231 144.668C53.2764 144.232 54.0444 143.999 54.8302 143.999C55.8838 143.999 56.8944 144.417 57.6394 145.162C58.3845 145.907 58.803 146.918 58.803 147.972Z" fill="#D3D3D3"/>
<path d="M84.2354 147.972C84.237 148.76 84.0047 149.53 83.5679 150.186C83.1311 150.842 82.5094 151.354 81.7817 151.656C81.0539 151.959 80.2528 152.038 79.4798 151.885C78.7068 151.731 77.9967 151.352 77.4394 150.795C76.8822 150.238 76.5029 149.527 76.3495 148.754C76.1962 147.981 76.2757 147.18 76.5781 146.453C76.8804 145.725 77.3919 145.103 78.0478 144.666C78.7037 144.229 79.4746 143.997 80.2626 143.999C81.3163 143.999 82.3267 144.417 83.0718 145.162C83.8168 145.907 84.2354 146.918 84.2354 147.972Z" fill="#D3D3D3"/>
<path d="M33.385 123.97C33.385 124.756 33.152 125.524 32.7155 126.177C32.2789 126.831 31.6584 127.34 30.9325 127.641C30.2065 127.941 29.4077 128.02 28.6371 127.867C27.8665 127.713 27.1586 127.335 26.603 126.779C26.0474 126.224 25.6691 125.516 25.5158 124.745C25.3625 123.975 25.4411 123.176 25.7418 122.45C26.0425 121.724 26.5517 121.103 27.205 120.667C27.8583 120.23 28.6265 119.997 29.4122 119.997C30.4659 119.997 31.4763 120.416 32.2214 121.161C32.9664 121.906 33.385 122.917 33.385 123.97Z" fill="#D3D3D3"/>
<path d="M58.803 123.97C58.803 124.756 58.5699 125.524 58.1334 126.177C57.6969 126.831 57.0764 127.34 56.3505 127.641C55.6246 127.941 54.8258 128.02 54.0551 127.867C53.2845 127.713 52.5766 127.335 52.021 126.779C51.4654 126.224 51.087 125.516 50.9337 124.745C50.7805 123.975 50.8592 123.176 51.1599 122.45C51.4606 121.724 51.9697 121.103 52.6231 120.667C53.2764 120.23 54.0444 119.997 54.8302 119.997C55.8838 119.997 56.8944 120.416 57.6394 121.161C58.3845 121.906 58.803 122.917 58.803 123.97Z" fill="#D3D3D3"/>
<path d="M84.2354 123.97C84.237 124.758 84.0047 125.529 83.5679 126.185C83.1311 126.841 82.5094 127.353 81.7817 127.655C81.0539 127.957 80.2528 128.037 79.4798 127.883C78.7068 127.73 77.9967 127.351 77.4394 126.793C76.8822 126.236 76.5029 125.526 76.3495 124.753C76.1962 123.98 76.2757 123.179 76.5781 122.451C76.8804 121.723 77.3919 121.102 78.0478 120.665C78.7037 120.228 79.4746 119.996 80.2626 119.997C81.3163 119.997 82.3267 120.416 83.0718 121.161C83.8168 121.906 84.2354 122.917 84.2354 123.97Z" fill="#D3D3D3"/>
<path d="M7.94549 99.9691C7.94549 100.755 7.71253 101.523 7.27599 102.176C6.83946 102.83 6.21902 103.339 5.49309 103.639C4.76716 103.94 3.96837 104.019 3.19773 103.866C2.42709 103.712 1.71922 103.334 1.16362 102.778C0.608014 102.223 0.229618 101.515 0.0763274 100.744C-0.0769629 99.9735 0.00175038 99.1747 0.30244 98.4488C0.60313 97.7229 1.11233 97.1024 1.76565 96.6659C2.41897 96.2293 3.18702 95.9963 3.97276 95.9963C5.0264 95.9963 6.03686 96.4149 6.7819 97.1599C7.52694 97.905 7.94549 98.9155 7.94549 99.9691Z" fill="#D3D3D3"/>
<path d="M33.385 99.9691C33.385 100.755 33.152 101.523 32.7155 102.176C32.2789 102.83 31.6584 103.339 30.9325 103.639C30.2065 103.94 29.4077 104.019 28.6371 103.866C27.8665 103.712 27.1586 103.334 26.603 102.778C26.0474 102.223 25.6691 101.515 25.5158 100.744C25.3625 99.9735 25.4411 99.1747 25.7418 98.4488C26.0425 97.7229 26.5517 97.1024 27.205 96.6659C27.8583 96.2293 28.6265 95.9963 29.4122 95.9963C30.4659 95.9963 31.4763 96.4149 32.2214 97.1599C32.9664 97.905 33.385 98.9155 33.385 99.9691Z" fill="#D3D3D3"/>
<path d="M58.803 99.9691C58.803 100.755 58.5699 101.523 58.1334 102.176C57.6969 102.83 57.0764 103.339 56.3505 103.639C55.6246 103.94 54.8258 104.019 54.0551 103.866C53.2845 103.712 52.5766 103.334 52.021 102.778C51.4654 102.223 51.087 101.515 50.9337 100.744C50.7805 99.9735 50.8592 99.1747 51.1599 98.4488C51.4606 97.7229 51.9697 97.1024 52.6231 96.6659C53.2764 96.2293 54.0444 95.9963 54.8302 95.9963C55.8838 95.9963 56.8944 96.4149 57.6394 97.1599C58.3845 97.905 58.803 98.9155 58.803 99.9691Z" fill="#D3D3D3"/>
<path d="M84.2354 99.9691C84.237 100.757 84.0047 101.528 83.5679 102.184C83.1311 102.84 82.5094 103.351 81.7817 103.654C81.0539 103.956 80.2528 104.036 79.4798 103.882C78.7068 103.729 77.9967 103.35 77.4394 102.792C76.8822 102.235 76.5029 101.525 76.3495 100.752C76.1962 99.979 76.2757 99.1778 76.5781 98.4501C76.8804 97.7223 77.3919 97.1007 78.0478 96.6638C78.7037 96.227 79.4746 95.9947 80.2626 95.9963C81.3163 95.9963 82.3267 96.4149 83.0718 97.1599C83.8168 97.905 84.2354 98.9155 84.2354 99.9691Z" fill="#D3D3D3"/>
<path d="M7.94549 75.9762C7.94387 76.7616 7.70949 77.5289 7.27197 78.1811C6.83445 78.8334 6.21344 79.3413 5.48737 79.6407C4.7613 79.9402 3.96281 80.0176 3.19271 79.8634C2.42261 79.7092 1.71548 79.3302 1.1607 78.7743C0.605923 78.2184 0.228347 77.5104 0.0757225 76.74C-0.0769024 75.9696 0.00231094 75.1712 0.303241 74.4458C0.604171 73.7203 1.11331 73.1004 1.76645 72.6642C2.41959 72.228 3.18736 71.9952 3.97275 71.9952C4.49516 71.9952 5.01246 72.0982 5.495 72.2984C5.97754 72.4986 6.41579 72.7919 6.78481 73.1617C7.15382 73.5315 7.44631 73.9704 7.64548 74.4534C7.84465 74.9363 7.94657 75.4538 7.94549 75.9762Z" fill="#D3D3D3"/>
<path d="M33.385 75.9762C33.3833 76.7616 33.149 77.5289 32.7115 78.1811C32.2739 78.8334 31.6529 79.3413 30.9268 79.6407C30.2008 79.9402 29.4022 80.0176 28.6321 79.8634C27.862 79.7092 27.1549 79.3302 26.6001 78.7743C26.0453 78.2184 25.6678 77.5104 25.5152 76.74C25.3626 75.9696 25.4417 75.1712 25.7426 74.4458C26.0435 73.7203 26.5528 73.1004 27.2059 72.6642C27.8591 72.228 28.6268 71.9952 29.4122 71.9952C30.4666 71.9974 31.4771 72.4178 32.2219 73.1641C32.9667 73.9105 33.385 74.9218 33.385 75.9762Z" fill="#D3D3D3"/>
<path d="M58.803 75.9762C58.8014 76.7616 58.567 77.5289 58.1295 78.1811C57.692 78.8334 57.071 79.3413 56.3449 79.6407C55.6188 79.9402 54.8202 80.0176 54.0501 79.8634C53.28 79.7092 52.5729 79.3302 52.0181 78.7743C51.4633 78.2184 51.0858 77.5104 50.9331 76.74C50.7805 75.9696 50.8597 75.1712 51.1607 74.4458C51.4616 73.7203 51.9708 73.1004 52.624 72.6642C53.2771 72.228 54.0448 71.9952 54.8302 71.9952C55.3526 71.9952 55.8699 72.0982 56.3524 72.2984C56.835 72.4986 57.2733 72.7919 57.6423 73.1617C58.0113 73.5315 58.3037 73.9704 58.5029 74.4534C58.7021 74.9363 58.8041 75.4538 58.803 75.9762Z" fill="#D3D3D3"/>
<path d="M84.2354 75.9762C84.2354 76.764 84.0018 77.534 83.564 78.1888C83.1262 78.8436 82.5038 79.3539 81.7759 79.655C81.048 79.956 80.2472 80.0344 79.4747 79.8801C78.7023 79.7259 77.9929 79.3459 77.4365 78.7883C76.8801 78.2307 76.5016 77.5206 76.3489 76.7478C76.1963 75.9751 76.2763 75.1744 76.5789 74.4471C76.8814 73.7198 77.3929 73.0986 78.0487 72.6622C78.7044 72.2257 79.4749 71.9936 80.2626 71.9952C81.317 71.9974 82.3275 72.4178 83.0723 73.1641C83.8171 73.9105 84.2354 74.9218 84.2354 75.9762Z" fill="#D3D3D3"/>
<path d="M33.385 51.975C33.385 52.7607 33.152 53.5288 32.7155 54.1821C32.2789 54.8354 31.6584 55.3446 30.9325 55.6453C30.2065 55.946 29.4077 56.0247 28.6371 55.8714C27.8665 55.7181 27.1586 55.3398 26.603 54.7842C26.0474 54.2285 25.6691 53.5207 25.5158 52.75C25.3625 51.9794 25.4411 51.1806 25.7418 50.4547C26.0425 49.7287 26.5517 49.1083 27.205 48.6717C27.8583 48.2352 28.6265 48.0022 29.4122 48.0022C30.4659 48.0022 31.4763 48.4208 32.2214 49.1658C32.9664 49.9108 33.385 50.9213 33.385 51.975Z" fill="#D3D3D3"/>
<path d="M58.803 51.975C58.803 52.7607 58.5699 53.5288 58.1334 54.1821C57.6969 54.8354 57.0764 55.3446 56.3505 55.6453C55.6246 55.946 54.8258 56.0247 54.0551 55.8714C53.2845 55.7181 52.5766 55.3398 52.021 54.7842C51.4654 54.2285 51.087 53.5207 50.9337 52.75C50.7805 51.9794 50.8592 51.1806 51.1599 50.4547C51.4606 49.7287 51.9697 49.1083 52.6231 48.6717C53.2764 48.2352 54.0444 48.0022 54.8302 48.0022C55.8838 48.0022 56.8944 48.4208 57.6394 49.1658C58.3845 49.9108 58.803 50.9213 58.803 51.975Z" fill="#D3D3D3"/>
<path d="M84.2354 51.975C84.237 52.763 84.0047 53.5339 83.5679 54.1898C83.1311 54.8457 82.5094 55.3572 81.7817 55.6596C81.0539 55.9619 80.2528 56.0414 79.4798 55.8881C78.7068 55.7348 77.9967 55.3554 77.4394 54.7982C76.8822 54.2409 76.5029 53.5308 76.3495 52.7578C76.1962 51.9848 76.2757 51.1837 76.5781 50.4559C76.8804 49.7282 77.3919 49.1065 78.0478 48.6697C78.7037 48.2329 79.4746 48.0006 80.2626 48.0022C81.3163 48.0022 82.3267 48.4208 83.0718 49.1658C83.8168 49.9108 84.2354 50.9213 84.2354 51.975Z" fill="#D3D3D3"/>
<path d="M33.385 27.9739C33.385 28.7596 33.152 29.5277 32.7155 30.181C32.2789 30.8344 31.6584 31.3436 30.9325 31.6442C30.2065 31.9449 29.4077 32.0236 28.6371 31.8703C27.8665 31.717 27.1586 31.3387 26.603 30.7831C26.0474 30.2274 25.6691 29.5196 25.5158 28.7489C25.3625 27.9783 25.4411 27.1795 25.7418 26.4536C26.0425 25.7276 26.5517 25.1072 27.205 24.6706C27.8583 24.2341 28.6265 24.0011 29.4122 24.0011C30.4659 24.0011 31.4763 24.4197 32.2214 25.1647C32.9664 25.9097 33.385 26.9202 33.385 27.9739Z" fill="#D3D3D3"/>
<path d="M58.803 27.9739C58.803 28.7596 58.5699 29.5277 58.1334 30.181C57.6969 30.8344 57.0764 31.3436 56.3505 31.6442C55.6246 31.9449 54.8258 32.0236 54.0551 31.8703C53.2845 31.717 52.5766 31.3387 52.021 30.7831C51.4654 30.2274 51.087 29.5196 50.9337 28.7489C50.7805 27.9783 50.8592 27.1795 51.1599 26.4536C51.4606 25.7276 51.9697 25.1072 52.6231 24.6706C53.2764 24.2341 54.0444 24.0011 54.8302 24.0011C55.8838 24.0011 56.8944 24.4197 57.6394 25.1647C58.3845 25.9097 58.803 26.9202 58.803 27.9739Z" fill="#D3D3D3"/>
<path d="M84.2353 27.9738C84.2304 28.7608 83.9925 29.5287 83.5513 30.1805C83.1102 30.8323 82.4858 31.3387 81.757 31.6357C81.0282 31.9327 80.2277 32.0071 79.4566 31.8494C78.6856 31.6917 77.9785 31.3089 77.4249 30.7496C76.8713 30.1902 76.4959 29.4793 76.3462 28.7067C76.1964 27.934 76.2791 27.1343 76.5836 26.4086C76.8882 25.6829 77.4009 25.0638 78.0572 24.6294C78.7135 24.195 79.4838 23.9649 80.2708 23.9682C80.7946 23.9692 81.3131 24.0739 81.7963 24.2761C82.2795 24.4783 82.7179 24.774 83.0864 25.1463C83.4548 25.5186 83.746 25.9601 83.9432 26.4453C84.1404 26.9306 84.2396 27.4501 84.2353 27.9738Z" fill="#D3D3D3"/>
<path d="M58.803 3.97278C58.803 4.75852 58.5699 5.5266 58.1334 6.17992C57.6969 6.83324 57.0764 7.34245 56.3505 7.64314C55.6246 7.94383 54.8258 8.02251 54.0551 7.86922C53.2845 7.71593 52.5766 7.33756 52.021 6.78195C51.4654 6.22635 51.087 5.51847 50.9337 4.74783C50.7805 3.97719 50.8592 3.17839 51.1599 2.45246C51.4606 1.72653 51.9697 1.10606 52.6231 0.669528C53.2764 0.232994 54.0444 0 54.8302 0C55.8838 0 56.8944 0.418558 57.6394 1.1636C58.3845 1.90864 58.803 2.91913 58.803 3.97278Z" fill="#D3D3D3"/>
<path d="M84.2354 3.97278C84.237 4.76085 84.0047 5.53167 83.5679 6.1876C83.1311 6.84353 82.5094 7.35505 81.7817 7.65738C81.0539 7.95971 80.2528 8.03925 79.4798 7.88591C78.7068 7.73256 77.9967 7.35324 77.4394 6.79599C76.8822 6.23875 76.5029 5.52865 76.3495 4.75564C76.1962 3.98264 76.2757 3.18151 76.5781 2.45374C76.8804 1.72597 77.3919 1.10431 78.0478 0.667503C78.7037 0.230691 79.4746 -0.00161808 80.2626 8.48335e-06C81.3163 8.48335e-06 82.3267 0.418566 83.0718 1.16361C83.8168 1.90865 84.2354 2.91914 84.2354 3.97278Z" fill="#D3D3D3"/>
</svg>
