<svg width="87" height="93" viewBox="0 0 87 93" fill="none" xmlns="http://www.w3.org/2000/svg">
<path d="M46.7813 3.84375H40.2188V0.562498H46.7813V3.84375ZM40.2188 3.84375H36.9375V7.125H40.2188V3.84375ZM50.0625 7.125V3.84375H46.7813V7.125H50.0625ZM36.9375 7.125H33.6563V10.4062H36.9375V7.125ZM53.3438 10.4062V7.125H50.0625V10.4062H53.3438ZM50.0625 49.7813V53.0625H53.3438V49.7813V46.5H33.6563V49.7813V53.0625H36.9375V49.7813H50.0625ZM46.7813 23.5312H40.2188V26.8125H46.7813V23.5312ZM36.9375 26.8125V33.375H40.2188V26.8125H36.9375ZM46.7813 33.375H50.0625V26.8125H46.7813V33.375ZM40.2188 36.6563H46.7813V33.375H40.2188V36.6563ZM53.3438 20.25V46.5H56.625H59.9063V43.2188H56.625V33.375H59.9063V30.0938H56.625V10.4062H53.3438V16.9688H33.6563V10.4062H30.375V30.0938H27.0938V33.375H30.375V43.2188H27.0938V46.5H30.375H33.6563V20.25H53.3438ZM27.0938 33.375H23.8125V36.6563H27.0938V33.375ZM23.8125 36.6563H20.5313V53.0625H23.8125V49.7813H27.0938V46.5H23.8125V36.6563ZM63.1875 36.6563V33.375H59.9063V36.6563H63.1875ZM59.9063 46.5V49.7813H63.1875V53.0625H66.4688V36.6563H63.1875V46.5H59.9063ZM27.0938 76.0313H30.375V69.4688H27.0938V76.0313ZM50.0625 62.9063V56.3438V53.0625H36.9375V56.3438V66.1875H30.375V69.4688H36.9375V76.0313H40.2188V56.3438H46.7813V69.4688H50.0625V66.1875H53.3438V62.9063H50.0625ZM53.3438 66.1875V72.75H56.625V66.1875H53.3438ZM56.625 76.0313H59.9063V72.75H56.625V76.0313ZM59.9063 69.4688V72.75H69.75V69.4688H59.9063ZM69.75 72.75V76.0313H73.0313V72.75H69.75ZM76.3125 76.0313H73.0313V85.875H76.3125V76.0313ZM73.0313 85.875H69.75V89.1563H66.4688V92.4375H86.1563V89.1563H73.0313V85.875ZM7.40625 89.1563V92.4375H20.5313V89.1563H17.25V85.875H13.9688V89.1563H7.40625ZM10.6875 85.875H13.9688V79.3125H10.6875V85.875ZM13.9688 79.3125H17.25V76.0313H13.9688V79.3125ZM23.8125 79.3125H27.0938V76.0313H23.8125V79.3125ZM17.25 72.75V76.0313H23.8125V72.75H17.25ZM27.0938 89.1563H30.375V85.875H27.0938V89.1563ZM30.375 85.875H33.6563V82.5938H30.375V85.875ZM50.0625 79.3125V82.5938H56.625V79.3125H50.0625ZM56.625 89.1563H59.9063V82.5938H56.625V89.1563ZM0.84375 92.4375H4.125V89.1563H0.84375V92.4375Z" fill="#8080FF"/>
</svg>
