<svg width="89" height="88" viewBox="0 0 89 88" fill="none" xmlns="http://www.w3.org/2000/svg">
<g clip-path="url(#clip0_1_57)">
<path d="M75.6348 38.7477L68.146 36.9204L69.6078 30.9293L62.8679 29.2847L64.5125 22.5448L57.7726 20.9002L56.128 27.6401L41.8992 24.1682L43.5438 17.4282L36.8038 15.7836L35.1592 22.5236L28.4193 20.879L26.9574 26.87L19.4686 25.0427L17.6413 32.5315L10.1525 30.7042L6.86326 44.1841L5.03592 51.6729L12.5247 53.5002L14.3521 46.0114L15.8139 40.0204L23.3028 41.8477L21.6582 48.5876L28.3981 50.2322L26.7535 56.9722L20.0136 55.3276L18.0035 63.5653L24.4461 65.1373L31.4833 66.8545L33.4405 58.8331L35.138 51.8767L49.3667 55.3486L47.6693 62.305L45.712 70.3264L52.7493 72.0435L59.192 73.6156L61.2021 65.3779L54.4622 63.7333L56.1068 56.9934L62.8467 58.638L64.4913 51.898L71.9801 53.7254L68.6909 67.2052L75.4307 68.8498L80.5473 47.8811L73.8075 46.2365L75.6348 38.7477ZM38.4452 41.5752L30.9564 39.7479L32.7837 32.2591L40.2725 34.0864L38.4452 41.5752ZM59.4139 46.6917L51.9251 44.8644L53.7524 37.3756L61.2412 39.2029L59.4139 46.6917Z" fill="#4FEE27"/>
</g>
<defs>
<clipPath id="clip0_1_57">
<rect width="72.4602" height="72.4602" fill="white" transform="translate(17.6445) rotate(13.7127)"/>
</clipPath>
</defs>
</svg>
