<svg width="83" height="83" viewBox="0 0 83 83" fill="none" xmlns="http://www.w3.org/2000/svg">
<g clip-path="url(#clip0_1_60)">
<path d="M10.733 16.8412L20.4601 14.8194L22.4926 24.5976L12.7655 26.6194L10.733 16.8412Z" fill="#FDA3C3"/>
<path d="M49.5635 8.7699L59.2874 6.7487L61.3199 16.5269L51.596 18.5481L49.5635 8.7699Z" fill="#FC2286"/>
<path d="M3.01538 28.6461L12.7655 26.6194L14.7938 36.3774L5.04368 38.4041L3.01538 28.6461Z" fill="#FDA3C3"/>
<path d="M12.7656 26.6194L22.4926 24.5976L24.5209 34.3556L14.7939 36.3774L12.7656 26.6194Z" fill="#FD60A8"/>
<path d="M22.4926 24.5975L32.1793 22.584L34.2076 32.342L24.5209 34.3555L22.4926 24.5975Z" fill="#FDA3C3"/>
<path d="M41.8612 20.5716L51.5959 18.5481L53.6242 28.3061L43.8895 30.3296L41.8612 20.5716Z" fill="#FC2286"/>
<path d="M61.3198 16.5269L71.0384 14.5068L73.0667 24.2648L63.3481 26.2849L61.3198 16.5269Z" fill="#FC2286"/>
<path d="M51.5961 18.5481L61.3199 16.5269L63.3482 26.2849L53.6244 28.3061L51.5961 18.5481Z" fill="#FD60A8"/>
<path d="M5.0437 38.4041L14.7938 36.3774L16.8227 46.1381L7.07258 48.1648L5.0437 38.4041Z" fill="#FD7EB8"/>
<path d="M14.7938 36.3774L24.5208 34.3555L26.5497 44.1163L16.8227 46.1381L14.7938 36.3774Z" fill="#FDA3C3"/>
<path d="M24.5209 34.3555L34.2076 32.342L36.2365 42.1028L26.5498 44.1163L24.5209 34.3555Z" fill="#FD7EB8"/>
<path d="M43.8895 30.3296L53.6242 28.3061L55.6531 38.0669L45.9183 40.0904L43.8895 30.3296Z" fill="#FD60A8"/>
<path d="M63.3481 26.2849L73.0667 24.2648L75.0956 34.0256L65.377 36.0457L63.3481 26.2849Z" fill="#FD60A8"/>
<path d="M53.6243 28.3061L63.3482 26.2849L65.377 36.0457L55.6532 38.0669L53.6243 28.3061Z" fill="#FC2286"/>
<path d="M16.8187 46.1187L26.5457 44.0968L28.5729 53.8497L18.8459 55.8716L16.8187 46.1187Z" fill="#FD7EB8"/>
<path d="M26.5457 44.0968L36.2325 42.0833L38.2597 51.8362L28.573 53.8497L26.5457 44.0968Z" fill="#FDA3C3"/>
<path d="M45.9143 40.0708L55.649 38.0473L57.6763 47.8003L47.9416 49.8237L45.9143 40.0708Z" fill="#FC2286"/>
<path d="M55.6492 38.0473L65.373 36.0261L67.4003 45.779L57.6764 47.8002L55.6492 38.0473Z" fill="#FD60A8"/>
<path d="M28.5729 53.8497L38.2597 51.8362L40.2862 61.5853L30.5994 63.5988L28.5729 53.8497Z" fill="#FD7EB8"/>
<path d="M47.9415 49.8237L57.6763 47.8003L59.7027 57.5493L49.968 59.5728L47.9415 49.8237Z" fill="#FD60A8"/>
<path d="M34.2076 32.342L36.2365 42.1027L41.0841 41.0951L41.7831 35.6164L39.0552 31.3344L34.2076 32.342Z" fill="#FD60A8"/>
<path d="M40.2861 61.5851L45.1337 60.5775L45.8541 55.2019L43.1073 50.8286L38.2597 51.8362L40.2861 61.5851Z" fill="#FD60A8"/>
<path d="M36.2325 42.0833L38.2597 51.8362L43.1073 50.8286L44.2065 45.4547L41.0801 41.0756L36.2325 42.0833Z" fill="#FD7EB8"/>
<path d="M41.0801 41.0756L45.9144 40.0708L47.9416 49.8237L43.1073 50.8286L41.0801 41.0756Z" fill="#FD60A8"/>
<path d="M42.3203 71.3716L47.1679 70.3639L48.1064 64.8237L45.1337 60.5775L40.2861 61.5851L42.3203 71.3716Z" fill="#FD7EB8"/>
<path d="M39.0552 31.3344L43.8895 30.3296L45.9183 40.0903L41.0841 41.0952L39.0552 31.3344Z" fill="#FC2286"/>
<path d="M43.1073 50.8286L47.9416 49.8238L49.968 59.5728L45.1337 60.5777L43.1073 50.8286Z" fill="#FC2286"/>
<path d="M45.1337 60.5775L49.9679 59.5727L52.0021 69.3589L47.1678 70.3638L45.1337 60.5775Z" fill="#FD60A8"/>
</g>
<defs>
<clipPath id="clip0_1_60">
<rect width="69.477" height="69.477" fill="white" transform="translate(0 14.1393) rotate(-11.7423)"/>
</clipPath>
</defs>
</svg>
