<svg width="130" height="130" viewBox="0 0 130 130" fill="none" xmlns="http://www.w3.org/2000/svg">
<path d="M71.2408 2.36505C72.2545 5.47089 76.6865 6.17489 78.6127 3.53601C79.2519 6.73994 83.5696 7.9632 85.7943 5.57065C86.0501 8.82769 90.1928 10.553 92.6849 8.44039C92.5537 11.7048 96.4633 13.908 99.1877 12.105C98.6713 15.331 102.293 17.9811 105.211 16.5129C104.317 19.6552 107.6 22.7151 110.672 21.6024C109.412 24.6169 112.31 28.0435 115.491 27.302C113.884 30.1463 116.356 33.8916 119.603 33.5316C117.671 36.1658 119.683 40.1772 122.95 40.2038C120.719 42.5909 122.242 46.8121 125.483 47.2249C122.986 49.3315 123.999 53.7032 127.169 54.4964C124.44 56.2929 124.929 60.7538 127.982 61.9162C125.06 63.3774 125.018 67.8648 127.913 69.3802C124.838 70.4855 124.266 74.9365 126.961 76.7836C123.777 77.5174 122.682 81.8695 125.14 84.0223C121.892 84.3745 120.29 88.5665 122.475 90.9949C119.209 90.9605 117.122 94.9336 119.005 97.6035C115.765 97.1829 113.224 100.881 114.778 103.755C111.61 102.954 108.649 106.326 109.852 109.364C106.802 108.194 103.462 111.192 104.298 114.35C101.407 112.828 97.7368 115.41 98.1929 118.645C95.5026 116.792 91.5526 118.921 91.6228 122.188C89.1706 120.029 84.9964 121.677 84.6799 124.928C82.5002 122.495 78.1604 123.637 77.4615 126.828C75.5849 124.154 71.1405 124.775 70.069 127.861C68.522 124.984 64.0352 125.075 62.6062 128.013C61.4104 124.973 56.9444 124.532 55.178 127.281C54.3501 124.12 49.9675 123.155 47.8884 125.675C47.4401 122.439 43.2025 120.962 40.8399 123.219C40.7775 119.952 36.7443 117.984 34.1314 119.946C34.4558 116.695 30.6836 114.264 27.8571 115.902C28.5637 112.713 25.1055 109.853 22.1051 111.145C23.184 108.062 20.0883 104.813 16.956 105.741C18.3921 102.807 15.7024 99.2145 12.4823 99.7663C14.2554 97.0222 12.0094 93.137 8.74663 93.304C10.8318 90.7889 9.06118 86.6653 5.80152 86.4453C8.16953 84.1945 6.89902 79.8904 3.68828 79.2864C6.30588 77.3314 5.55333 72.9073 2.43656 71.9278C5.26702 70.2962 5.043 65.8141 2.06396 64.4728C5.06753 63.1874 5.3752 58.7103 2.5757 57.0261C5.71022 56.1049 6.54525 51.6956 3.9646 49.6921C7.18607 49.1482 8.53674 44.8686 6.21117 42.5739C9.47436 42.4148 11.3217 38.325 9.28385 35.7714C12.543 35.9993 14.861 32.1568 13.1395 29.38C16.3488 29.9918 19.1051 26.4504 17.7241 23.4896C20.8384 24.4766 23.9942 21.286 22.9731 18.1827C25.9489 19.5311 29.4599 16.7362 28.813 13.5338C31.6084 15.2248 35.4253 12.8647 35.1617 9.60831C37.7375 11.618 41.8067 9.72598 41.9301 6.46123C44.2501 8.76151 48.5146 7.36401 49.0232 4.13677C51.0549 6.6953 55.4548 5.81198 56.3415 2.66755C58.0563 5.44841 62.5298 5.09168 63.7822 2.0742C65.1561 5.03836 69.6403 5.21322 71.2408 2.36505Z" fill="#17171B" stroke="white" stroke-width="0.726573"/>
</svg>
